<svg width="52" height="52" viewBox="0 0 52 52" fill="none" xmlns="http://www.w3.org/2000/svg">
<g filter="url(#filter0_d)">
<path fill-rule="evenodd" clip-rule="evenodd" d="M26 43.5C35.665 43.5 43.5 35.665 43.5 26C43.5 16.335 35.665 8.5 26 8.5C16.335 8.5 8.5 16.335 8.5 26C8.5 35.665 16.335 43.5 26 43.5ZM26 46C37.0457 46 46 37.0457 46 26C46 14.9543 37.0457 6 26 6C14.9543 6 6 14.9543 6 26C6 37.0457 14.9543 46 26 46Z" fill="white"/>
<path d="M43.5 26C43.5 35.665 35.665 43.5 26 43.5C16.335 43.5 8.5 35.665 8.5 26C8.5 16.335 16.335 8.5 26 8.5C35.665 8.5 43.5 16.335 43.5 26Z" fill="white"/>
<path d="M34.3854 24.5417H27.4583V17.6146C27.4583 17.4141 27.2943 17.25 27.0938 17.25H24.9062C24.7057 17.25 24.5417 17.4141 24.5417 17.6146V24.5417H17.6146C17.4141 24.5417 17.25 24.7057 17.25 24.9062V27.0938C17.25 27.2943 17.4141 27.4583 17.6146 27.4583H24.5417V34.3854C24.5417 34.5859 24.7057 34.75 24.9062 34.75H27.0938C27.2943 34.75 27.4583 34.5859 27.4583 34.3854V27.4583H34.3854C34.5859 27.4583 34.75 27.2943 34.75 27.0938V24.9062C34.75 24.7057 34.5859 24.5417 34.3854 24.5417Z" fill="#4D4D4D"/>
</g>
<defs>
<filter id="filter0_d" x="0" y="0" width="52" height="52" filterUnits="userSpaceOnUse" color-interpolation-filters="sRGB">
<feFlood flood-opacity="0" result="BackgroundImageFix"/>
<feColorMatrix in="SourceAlpha" type="matrix" values="0 0 0 0 0 0 0 0 0 0 0 0 0 0 0 0 0 0 127 0"/>
<feOffset/>
<feGaussianBlur stdDeviation="3"/>
<feColorMatrix type="matrix" values="0 0 0 0 0 0 0 0 0 0 0 0 0 0 0 0 0 0 0.1 0"/>
<feBlend mode="normal" in2="BackgroundImageFix" result="effect1_dropShadow"/>
<feBlend mode="normal" in="SourceGraphic" in2="effect1_dropShadow" result="shape"/>
</filter>
</defs>
</svg>
