<svg width="52" height="52" viewBox="0 0 52 52" fill="none" xmlns="http://www.w3.org/2000/svg">
<g filter="url(#filter0_d)">
<path fill-rule="evenodd" clip-rule="evenodd" d="M26 43.5C35.665 43.5 43.5 35.665 43.5 26C43.5 16.335 35.665 8.5 26 8.5C16.335 8.5 8.5 16.335 8.5 26C8.5 35.665 16.335 43.5 26 43.5ZM26 46C37.0457 46 46 37.0457 46 26C46 14.9543 37.0457 6 26 6C14.9543 6 6 14.9543 6 26C6 37.0457 14.9543 46 26 46Z" fill="white"/>
<path d="M43.5 26C43.5 35.665 35.665 43.5 26 43.5C16.335 43.5 8.5 35.665 8.5 26C8.5 16.335 16.335 8.5 26 8.5C35.665 8.5 43.5 16.335 43.5 26Z" fill="white"/>
<path d="M15.5183 28.7213L31.4664 16.84C31.8138 16.5811 32.3103 16.8678 32.2598 17.2981L29.9443 37.0502C29.8902 37.5119 29.2383 37.6607 29.0084 37.1987L25.6893 30.5289C25.2414 29.6288 24.2969 29.0835 23.2934 29.1456L15.8576 29.6061C15.3425 29.638 15.1455 28.9991 15.5183 28.7213Z" stroke="#4D4D4D" stroke-width="2"/>
</g>
<defs>
<filter id="filter0_d" x="0" y="0" width="52" height="52" filterUnits="userSpaceOnUse" color-interpolation-filters="sRGB">
<feFlood flood-opacity="0" result="BackgroundImageFix"/>
<feColorMatrix in="SourceAlpha" type="matrix" values="0 0 0 0 0 0 0 0 0 0 0 0 0 0 0 0 0 0 127 0"/>
<feOffset/>
<feGaussianBlur stdDeviation="3"/>
<feColorMatrix type="matrix" values="0 0 0 0 0 0 0 0 0 0 0 0 0 0 0 0 0 0 0.1 0"/>
<feBlend mode="normal" in2="BackgroundImageFix" result="effect1_dropShadow"/>
<feBlend mode="normal" in="SourceGraphic" in2="effect1_dropShadow" result="shape"/>
</filter>
</defs>
</svg>
