<svg width="60" height="67" viewBox="0 0 60 67" fill="none" xmlns="http://www.w3.org/2000/svg">
<g filter="url(#filter0_d)">
<path d="M6 28C6 14.7452 16.7452 4 30 4C43.2548 4 54 14.7452 54 28C54 38.8008 46.8652 47.9353 37.0517 50.9473C34.6503 51.6844 32.5614 53.3902 31.8878 55.8102L31.2681 58.0366C31.1097 58.606 30.5911 59 30 59C29.4089 59 28.8903 58.606 28.7319 58.0366L28.1122 55.8102C27.4386 53.3901 25.3497 51.6844 22.9483 50.9473C13.1347 47.9352 6 38.8008 6 28Z" fill="white"/>
<path d="M34.3503 14C34.8403 14 35.2581 14.355 35.3372 14.8385L36.8099 23.8385C36.9095 24.4472 36.4398 25 35.8231 25H24.1769C23.5602 25 23.0905 24.4472 23.1901 23.8385L24.6628 14.8385C24.7419 14.355 25.1597 14 25.6497 14H34.3503ZM28.6 27C28.6 26.4477 29.0477 26 29.6 26H30.4C30.9523 26 31.4 26.4477 31.4 27V38.2C31.4 38.7523 31.8477 39.2 32.4 39.2H34C34.5523 39.2 35 39.6477 35 40.2V41C35 41.5523 34.5523 42 34 42H26C25.4477 42 25 41.5523 25 41V40.2C25 39.6477 25.4477 39.2 26 39.2H27.6C28.1523 39.2 28.6 38.7523 28.6 38.2V27Z" fill="#5181B8"/>
</g>
<defs>
<filter id="filter0_d" x="0" y="0" width="60" height="67" filterUnits="userSpaceOnUse" color-interpolation-filters="sRGB">
<feFlood flood-opacity="0" result="BackgroundImageFix"/>
<feColorMatrix in="SourceAlpha" type="matrix" values="0 0 0 0 0 0 0 0 0 0 0 0 0 0 0 0 0 0 127 0"/>
<feOffset dy="2"/>
<feGaussianBlur stdDeviation="3"/>
<feColorMatrix type="matrix" values="0 0 0 0 0 0 0 0 0 0 0 0 0 0 0 0 0 0 0.15 0"/>
<feBlend mode="normal" in2="BackgroundImageFix" result="effect1_dropShadow"/>
<feBlend mode="normal" in="SourceGraphic" in2="effect1_dropShadow" result="shape"/>
</filter>
</defs>
</svg>
